G04*
G04 #@! TF.GenerationSoftware,Altium Limited,CircuitStudio,1.5.1 (13)*
G04*
G04 Layer_Color=16764159*
%FSLAX25Y25*%
%MOIN*%
G70*
G01*
G75*
%ADD23C,0.01000*%
G04:AMPARAMS|DCode=38|XSize=27.69mil|YSize=27.69mil|CornerRadius=5.97mil|HoleSize=0mil|Usage=FLASHONLY|Rotation=180.000|XOffset=0mil|YOffset=0mil|HoleType=Round|Shape=RoundedRectangle|*
%AMROUNDEDRECTD38*
21,1,0.02769,0.01575,0,0,180.0*
21,1,0.01575,0.02769,0,0,180.0*
1,1,0.01194,-0.00787,0.00787*
1,1,0.01194,0.00787,0.00787*
1,1,0.01194,0.00787,-0.00787*
1,1,0.01194,-0.00787,-0.00787*
%
%ADD38ROUNDEDRECTD38*%
G04:AMPARAMS|DCode=43|XSize=43mil|YSize=20.01mil|CornerRadius=5.5mil|HoleSize=0mil|Usage=FLASHONLY|Rotation=90.000|XOffset=0mil|YOffset=0mil|HoleType=Round|Shape=RoundedRectangle|*
%AMROUNDEDRECTD43*
21,1,0.04300,0.00901,0,0,90.0*
21,1,0.03200,0.02001,0,0,90.0*
1,1,0.01100,0.00450,0.01600*
1,1,0.01100,0.00450,-0.01600*
1,1,0.01100,-0.00450,-0.01600*
1,1,0.01100,-0.00450,0.01600*
%
%ADD43ROUNDEDRECTD43*%
G04:AMPARAMS|DCode=45|XSize=27.69mil|YSize=27.69mil|CornerRadius=5.97mil|HoleSize=0mil|Usage=FLASHONLY|Rotation=90.000|XOffset=0mil|YOffset=0mil|HoleType=Round|Shape=RoundedRectangle|*
%AMROUNDEDRECTD45*
21,1,0.02769,0.01575,0,0,90.0*
21,1,0.01575,0.02769,0,0,90.0*
1,1,0.01194,0.00787,0.00787*
1,1,0.01194,0.00787,-0.00787*
1,1,0.01194,-0.00787,-0.00787*
1,1,0.01194,-0.00787,0.00787*
%
%ADD45ROUNDEDRECTD45*%
%ADD51R,0.06706X0.06706*%
%ADD52C,0.06706*%
%ADD53C,0.02800*%
G04:AMPARAMS|DCode=54|XSize=38mil|YSize=26mil|CornerRadius=4.9mil|HoleSize=0mil|Usage=FLASHONLY|Rotation=0.000|XOffset=0mil|YOffset=0mil|HoleType=Round|Shape=RoundedRectangle|*
%AMROUNDEDRECTD54*
21,1,0.03800,0.01620,0,0,0.0*
21,1,0.02820,0.02600,0,0,0.0*
1,1,0.00980,0.01410,-0.00810*
1,1,0.00980,-0.01410,-0.00810*
1,1,0.00980,-0.01410,0.00810*
1,1,0.00980,0.01410,0.00810*
%
%ADD54ROUNDEDRECTD54*%
G04:AMPARAMS|DCode=55|XSize=24mil|YSize=34mil|CornerRadius=4.8mil|HoleSize=0mil|Usage=FLASHONLY|Rotation=270.000|XOffset=0mil|YOffset=0mil|HoleType=Round|Shape=RoundedRectangle|*
%AMROUNDEDRECTD55*
21,1,0.02400,0.02440,0,0,270.0*
21,1,0.01440,0.03400,0,0,270.0*
1,1,0.00960,-0.01220,-0.00720*
1,1,0.00960,-0.01220,0.00720*
1,1,0.00960,0.01220,0.00720*
1,1,0.00960,0.01220,-0.00720*
%
%ADD55ROUNDEDRECTD55*%
G04:AMPARAMS|DCode=56|XSize=31.62mil|YSize=31.62mil|CornerRadius=6.36mil|HoleSize=0mil|Usage=FLASHONLY|Rotation=270.000|XOffset=0mil|YOffset=0mil|HoleType=Round|Shape=RoundedRectangle|*
%AMROUNDEDRECTD56*
21,1,0.03162,0.01890,0,0,270.0*
21,1,0.01890,0.03162,0,0,270.0*
1,1,0.01272,-0.00945,-0.00945*
1,1,0.01272,-0.00945,0.00945*
1,1,0.01272,0.00945,0.00945*
1,1,0.01272,0.00945,-0.00945*
%
%ADD56ROUNDEDRECTD56*%
G04:AMPARAMS|DCode=57|XSize=23.75mil|YSize=23.75mil|CornerRadius=5.58mil|HoleSize=0mil|Usage=FLASHONLY|Rotation=270.000|XOffset=0mil|YOffset=0mil|HoleType=Round|Shape=RoundedRectangle|*
%AMROUNDEDRECTD57*
21,1,0.02375,0.01260,0,0,270.0*
21,1,0.01260,0.02375,0,0,270.0*
1,1,0.01115,-0.00630,-0.00630*
1,1,0.01115,-0.00630,0.00630*
1,1,0.01115,0.00630,0.00630*
1,1,0.01115,0.00630,-0.00630*
%
%ADD57ROUNDEDRECTD57*%
G04:AMPARAMS|DCode=58|XSize=32.02mil|YSize=63.91mil|CornerRadius=5.2mil|HoleSize=0mil|Usage=FLASHONLY|Rotation=180.000|XOffset=0mil|YOffset=0mil|HoleType=Round|Shape=RoundedRectangle|*
%AMROUNDEDRECTD58*
21,1,0.03202,0.05350,0,0,180.0*
21,1,0.02161,0.06391,0,0,180.0*
1,1,0.01040,-0.01081,0.02675*
1,1,0.01040,0.01081,0.02675*
1,1,0.01040,0.01081,-0.02675*
1,1,0.01040,-0.01081,-0.02675*
%
%ADD58ROUNDEDRECTD58*%
G04:AMPARAMS|DCode=59|XSize=34.58mil|YSize=17.84mil|CornerRadius=4.49mil|HoleSize=0mil|Usage=FLASHONLY|Rotation=180.000|XOffset=0mil|YOffset=0mil|HoleType=Round|Shape=RoundedRectangle|*
%AMROUNDEDRECTD59*
21,1,0.03458,0.00886,0,0,180.0*
21,1,0.02559,0.01784,0,0,180.0*
1,1,0.00898,-0.01280,0.00443*
1,1,0.00898,0.01280,0.00443*
1,1,0.00898,0.01280,-0.00443*
1,1,0.00898,-0.01280,-0.00443*
%
%ADD59ROUNDEDRECTD59*%
D23*
X64567Y182214D02*
X135433D01*
Y17786D02*
Y182214D01*
X64567Y17786D02*
X135433D01*
X64567D02*
Y182214D01*
D38*
X118468Y122000D02*
D03*
X114532D02*
D03*
X117598Y136286D02*
D03*
X121535D02*
D03*
X117598Y132786D02*
D03*
X121535D02*
D03*
X109531Y82500D02*
D03*
X113469D02*
D03*
X109531Y79000D02*
D03*
X113469D02*
D03*
X109531Y97000D02*
D03*
X113469D02*
D03*
X109531Y100500D02*
D03*
X113469D02*
D03*
X110031Y109500D02*
D03*
X113969D02*
D03*
X110031Y106000D02*
D03*
X113969D02*
D03*
X100469Y86000D02*
D03*
X96531D02*
D03*
X96031Y43000D02*
D03*
X99968D02*
D03*
X96031Y39500D02*
D03*
X99968D02*
D03*
Y36000D02*
D03*
X96031D02*
D03*
X107468D02*
D03*
X103532D02*
D03*
X113031Y118000D02*
D03*
X116969D02*
D03*
D43*
X95063Y47955D02*
D03*
X97031D02*
D03*
X99000D02*
D03*
X100969D02*
D03*
Y65045D02*
D03*
X99000D02*
D03*
X97031D02*
D03*
X95063D02*
D03*
D45*
X90500Y48031D02*
D03*
Y51968D02*
D03*
Y61032D02*
D03*
Y64969D02*
D03*
X105500Y51968D02*
D03*
Y48031D02*
D03*
X93000Y117968D02*
D03*
Y114032D02*
D03*
X96500Y117968D02*
D03*
Y114032D02*
D03*
X104067Y126817D02*
D03*
Y130754D02*
D03*
X108067Y126817D02*
D03*
Y130754D02*
D03*
D51*
X129528Y30500D02*
D03*
X70472Y169500D02*
D03*
D52*
X129528Y40500D02*
D03*
Y50500D02*
D03*
Y60500D02*
D03*
Y70500D02*
D03*
Y80500D02*
D03*
Y90500D02*
D03*
Y100500D02*
D03*
Y110500D02*
D03*
Y120500D02*
D03*
Y130500D02*
D03*
Y140500D02*
D03*
Y150500D02*
D03*
Y160500D02*
D03*
Y170500D02*
D03*
X70472Y159500D02*
D03*
Y149500D02*
D03*
Y139500D02*
D03*
Y129500D02*
D03*
Y119500D02*
D03*
Y109500D02*
D03*
Y99500D02*
D03*
Y89500D02*
D03*
Y79500D02*
D03*
Y69500D02*
D03*
Y59500D02*
D03*
Y49500D02*
D03*
Y39500D02*
D03*
Y29500D02*
D03*
D53*
X112067Y114286D02*
D03*
X83567Y116786D02*
D03*
X89567Y102286D02*
D03*
X80567Y46786D02*
D03*
X88067Y96786D02*
D03*
X92567Y68286D02*
D03*
X90567Y43286D02*
D03*
X96267Y121086D02*
D03*
X99967Y121986D02*
D03*
X91667Y124186D02*
D03*
X92167Y121186D02*
D03*
X116467Y103286D02*
D03*
X78767Y137086D02*
D03*
X81567Y74286D02*
D03*
X93267Y85986D02*
D03*
X114167Y75286D02*
D03*
X84567Y93701D02*
D03*
X105567Y122786D02*
D03*
X109567D02*
D03*
X118067Y75786D02*
D03*
X104067Y85786D02*
D03*
D54*
X104700Y109449D02*
D03*
X95300D02*
D03*
Y106299D02*
D03*
Y103150D02*
D03*
Y100000D02*
D03*
Y96850D02*
D03*
Y93701D02*
D03*
Y90551D02*
D03*
X104700Y106299D02*
D03*
Y103150D02*
D03*
Y100000D02*
D03*
Y96850D02*
D03*
Y93701D02*
D03*
Y90551D02*
D03*
D55*
X109700Y86941D02*
D03*
Y92059D02*
D03*
X117300Y86941D02*
D03*
Y89500D02*
D03*
Y92059D02*
D03*
D56*
X113567Y132935D02*
D03*
Y126636D02*
D03*
D57*
X111992Y129786D02*
D03*
X115142D02*
D03*
D58*
X104500Y117000D02*
D03*
D59*
X100908Y118968D02*
D03*
Y117000D02*
D03*
Y115032D02*
D03*
X108092D02*
D03*
Y117000D02*
D03*
Y118968D02*
D03*
M02*
