G04*
G04 #@! TF.GenerationSoftware,Altium Limited,CircuitStudio,1.5.1 (13)*
G04*
G04 Layer_Color=2752767*
%FSLAX25Y25*%
%MOIN*%
G70*
G01*
G75*
%ADD23C,0.01000*%
%ADD35C,0.00500*%
%ADD62C,0.00667*%
D23*
X64567Y182214D02*
X135433D01*
Y17786D02*
Y182214D01*
X64567Y17786D02*
X135433D01*
X64567D02*
Y182214D01*
D35*
X127528Y28500D02*
Y32500D01*
X131528D01*
Y28500D01*
X127528D01*
Y38500D02*
Y42500D01*
X131528D01*
Y38500D01*
X127528D01*
Y48500D02*
Y52500D01*
X131528D01*
Y48500D01*
X127528D01*
Y58500D02*
Y62500D01*
X131528D01*
Y58500D01*
X127528D01*
Y68500D02*
Y72500D01*
X131528D01*
Y68500D01*
X127528D01*
Y78500D02*
Y82500D01*
X131528D01*
Y78500D01*
X127528D01*
Y88500D02*
Y92500D01*
X131528D01*
Y88500D01*
X127528D01*
Y98500D02*
Y102500D01*
X131528D01*
Y98500D01*
X127528D01*
Y108500D02*
Y112500D01*
X131528D01*
Y108500D01*
X127528D01*
Y118500D02*
Y122500D01*
X131528D01*
Y118500D01*
X127528D01*
Y128500D02*
Y132500D01*
X131528D01*
Y128500D01*
X127528D01*
Y138500D02*
Y142500D01*
X131528D01*
Y138500D01*
X127528D01*
Y148500D02*
Y152500D01*
X131528D01*
Y148500D01*
X127528D01*
Y158500D02*
Y162500D01*
X131528D01*
Y158500D01*
X127528D01*
Y168500D02*
Y172500D01*
X131528D01*
Y168500D01*
X127528D01*
X68472Y167500D02*
Y171500D01*
X72472D01*
Y167500D01*
X68472D01*
Y157500D02*
Y161500D01*
X72472D01*
Y157500D01*
X68472D01*
Y147500D02*
Y151500D01*
X72472D01*
Y147500D01*
X68472D01*
Y137500D02*
Y141500D01*
X72472D01*
Y137500D01*
X68472D01*
Y127500D02*
Y131500D01*
X72472D01*
Y127500D01*
X68472D01*
Y117500D02*
Y121500D01*
X72472D01*
Y117500D01*
X68472D01*
Y107500D02*
Y111500D01*
X72472D01*
Y107500D01*
X68472D01*
Y97500D02*
Y101500D01*
X72472D01*
Y97500D01*
X68472D01*
Y87500D02*
Y91500D01*
X72472D01*
Y87500D01*
X68472D01*
Y77500D02*
Y81500D01*
X72472D01*
Y77500D01*
X68472D01*
Y67500D02*
Y71500D01*
X72472D01*
Y67500D01*
X68472D01*
Y57500D02*
Y61500D01*
X72472D01*
Y57500D01*
X68472D01*
Y47500D02*
Y51500D01*
X72472D01*
Y47500D01*
X68472D01*
Y37500D02*
Y41500D01*
X72472D01*
Y37500D01*
X68472D01*
Y27500D02*
Y31500D01*
X72472D01*
Y27500D01*
X68472D01*
D62*
X114067Y114286D02*
G03*
X114067Y114286I-2000J0D01*
G01*
X85567Y116786D02*
G03*
X85567Y116786I-2000J0D01*
G01*
X91567Y102286D02*
G03*
X91567Y102286I-2000J0D01*
G01*
X82567Y46786D02*
G03*
X82567Y46786I-2000J0D01*
G01*
X90067Y96786D02*
G03*
X90067Y96786I-2000J0D01*
G01*
X94567Y68286D02*
G03*
X94567Y68286I-2000J0D01*
G01*
X92567Y43286D02*
G03*
X92567Y43286I-2000J0D01*
G01*
X98267Y121086D02*
G03*
X98267Y121086I-2000J0D01*
G01*
X101967Y121986D02*
G03*
X101967Y121986I-2000J0D01*
G01*
X93667Y124186D02*
G03*
X93667Y124186I-2000J0D01*
G01*
X94167Y121186D02*
G03*
X94167Y121186I-2000J0D01*
G01*
X118467Y103286D02*
G03*
X118467Y103286I-2000J0D01*
G01*
X80767Y137086D02*
G03*
X80767Y137086I-2000J0D01*
G01*
X83567Y74286D02*
G03*
X83567Y74286I-2000J0D01*
G01*
X95267Y85986D02*
G03*
X95267Y85986I-2000J0D01*
G01*
X116167Y75286D02*
G03*
X116167Y75286I-2000J0D01*
G01*
X86567Y93701D02*
G03*
X86567Y93701I-2000J0D01*
G01*
X107567Y122786D02*
G03*
X107567Y122786I-2000J0D01*
G01*
X111567D02*
G03*
X111567Y122786I-2000J0D01*
G01*
X120067Y75786D02*
G03*
X120067Y75786I-2000J0D01*
G01*
X106067Y85786D02*
G03*
X106067Y85786I-2000J0D01*
G01*
M02*
