G04*
G04 #@! TF.GenerationSoftware,Altium Limited,CircuitStudio,1.5.1 (13)*
G04*
G04 Layer_Color=11767835*
%FSLAX25Y25*%
%MOIN*%
G70*
G01*
G75*
G04:AMPARAMS|DCode=10|XSize=19.69mil|YSize=19.69mil|CornerRadius=1.97mil|HoleSize=0mil|Usage=FLASHONLY|Rotation=180.000|XOffset=0mil|YOffset=0mil|HoleType=Round|Shape=RoundedRectangle|*
%AMROUNDEDRECTD10*
21,1,0.01969,0.01575,0,0,180.0*
21,1,0.01575,0.01969,0,0,180.0*
1,1,0.00394,-0.00787,0.00787*
1,1,0.00394,0.00787,0.00787*
1,1,0.00394,0.00787,-0.00787*
1,1,0.00394,-0.00787,-0.00787*
%
%ADD10ROUNDEDRECTD10*%
G04:AMPARAMS|DCode=11|XSize=23.62mil|YSize=23.62mil|CornerRadius=2.36mil|HoleSize=0mil|Usage=FLASHONLY|Rotation=0.000|XOffset=0mil|YOffset=0mil|HoleType=Round|Shape=RoundedRectangle|*
%AMROUNDEDRECTD11*
21,1,0.02362,0.01890,0,0,0.0*
21,1,0.01890,0.02362,0,0,0.0*
1,1,0.00472,0.00945,-0.00945*
1,1,0.00472,-0.00945,-0.00945*
1,1,0.00472,-0.00945,0.00945*
1,1,0.00472,0.00945,0.00945*
%
%ADD11ROUNDEDRECTD11*%
G04:AMPARAMS|DCode=12|XSize=15.75mil|YSize=15.75mil|CornerRadius=1.58mil|HoleSize=0mil|Usage=FLASHONLY|Rotation=0.000|XOffset=0mil|YOffset=0mil|HoleType=Round|Shape=RoundedRectangle|*
%AMROUNDEDRECTD12*
21,1,0.01575,0.01260,0,0,0.0*
21,1,0.01260,0.01575,0,0,0.0*
1,1,0.00315,0.00630,-0.00630*
1,1,0.00315,-0.00630,-0.00630*
1,1,0.00315,-0.00630,0.00630*
1,1,0.00315,0.00630,0.00630*
%
%ADD12ROUNDEDRECTD12*%
G04:AMPARAMS|DCode=13|XSize=31.5mil|YSize=62.99mil|CornerRadius=1.58mil|HoleSize=0mil|Usage=FLASHONLY|Rotation=0.000|XOffset=0mil|YOffset=0mil|HoleType=Round|Shape=RoundedRectangle|*
%AMROUNDEDRECTD13*
21,1,0.03150,0.05984,0,0,0.0*
21,1,0.02835,0.06299,0,0,0.0*
1,1,0.00315,0.01417,-0.02992*
1,1,0.00315,-0.01417,-0.02992*
1,1,0.00315,-0.01417,0.02992*
1,1,0.00315,0.01417,0.02992*
%
%ADD13ROUNDEDRECTD13*%
G04:AMPARAMS|DCode=14|XSize=90mil|YSize=118.11mil|CornerRadius=4.5mil|HoleSize=0mil|Usage=FLASHONLY|Rotation=0.000|XOffset=0mil|YOffset=0mil|HoleType=Round|Shape=RoundedRectangle|*
%AMROUNDEDRECTD14*
21,1,0.09000,0.10911,0,0,0.0*
21,1,0.08100,0.11811,0,0,0.0*
1,1,0.00900,0.04050,-0.05456*
1,1,0.00900,-0.04050,-0.05456*
1,1,0.00900,-0.04050,0.05456*
1,1,0.00900,0.04050,0.05456*
%
%ADD14ROUNDEDRECTD14*%
G04:AMPARAMS|DCode=15|XSize=35mil|YSize=12.01mil|CornerRadius=1.5mil|HoleSize=0mil|Usage=FLASHONLY|Rotation=90.000|XOffset=0mil|YOffset=0mil|HoleType=Round|Shape=RoundedRectangle|*
%AMROUNDEDRECTD15*
21,1,0.03500,0.00901,0,0,90.0*
21,1,0.03200,0.01201,0,0,90.0*
1,1,0.00300,0.00450,0.01600*
1,1,0.00300,0.00450,-0.01600*
1,1,0.00300,-0.00450,-0.01600*
1,1,0.00300,-0.00450,0.01600*
%
%ADD15ROUNDEDRECTD15*%
G04:AMPARAMS|DCode=16|XSize=35mil|YSize=12.01mil|CornerRadius=1.5mil|HoleSize=0mil|Usage=FLASHONLY|Rotation=180.000|XOffset=0mil|YOffset=0mil|HoleType=Round|Shape=RoundedRectangle|*
%AMROUNDEDRECTD16*
21,1,0.03500,0.00901,0,0,180.0*
21,1,0.03200,0.01201,0,0,180.0*
1,1,0.00300,-0.01600,0.00450*
1,1,0.00300,0.01600,0.00450*
1,1,0.00300,0.01600,-0.00450*
1,1,0.00300,-0.01600,-0.00450*
%
%ADD16ROUNDEDRECTD16*%
G04:AMPARAMS|DCode=17|XSize=19.69mil|YSize=19.69mil|CornerRadius=1.97mil|HoleSize=0mil|Usage=FLASHONLY|Rotation=90.000|XOffset=0mil|YOffset=0mil|HoleType=Round|Shape=RoundedRectangle|*
%AMROUNDEDRECTD17*
21,1,0.01969,0.01575,0,0,90.0*
21,1,0.01575,0.01969,0,0,90.0*
1,1,0.00394,0.00787,0.00787*
1,1,0.00394,0.00787,-0.00787*
1,1,0.00394,-0.00787,-0.00787*
1,1,0.00394,-0.00787,0.00787*
%
%ADD17ROUNDEDRECTD17*%
G04:AMPARAMS|DCode=18|XSize=129.92mil|YSize=129.92mil|CornerRadius=3.25mil|HoleSize=0mil|Usage=FLASHONLY|Rotation=270.000|XOffset=0mil|YOffset=0mil|HoleType=Round|Shape=RoundedRectangle|*
%AMROUNDEDRECTD18*
21,1,0.12992,0.12342,0,0,270.0*
21,1,0.12342,0.12992,0,0,270.0*
1,1,0.00650,-0.06171,-0.06171*
1,1,0.00650,-0.06171,0.06171*
1,1,0.00650,0.06171,0.06171*
1,1,0.00650,0.06171,-0.06171*
%
%ADD18ROUNDEDRECTD18*%
G04:AMPARAMS|DCode=19|XSize=37.4mil|YSize=11.81mil|CornerRadius=0.59mil|HoleSize=0mil|Usage=FLASHONLY|Rotation=180.000|XOffset=0mil|YOffset=0mil|HoleType=Round|Shape=RoundedRectangle|*
%AMROUNDEDRECTD19*
21,1,0.03740,0.01063,0,0,180.0*
21,1,0.03622,0.01181,0,0,180.0*
1,1,0.00118,-0.01811,0.00532*
1,1,0.00118,0.01811,0.00532*
1,1,0.00118,0.01811,-0.00532*
1,1,0.00118,-0.01811,-0.00532*
%
%ADD19ROUNDEDRECTD19*%
G04:AMPARAMS|DCode=20|XSize=37.4mil|YSize=11.81mil|CornerRadius=0.59mil|HoleSize=0mil|Usage=FLASHONLY|Rotation=90.000|XOffset=0mil|YOffset=0mil|HoleType=Round|Shape=RoundedRectangle|*
%AMROUNDEDRECTD20*
21,1,0.03740,0.01063,0,0,90.0*
21,1,0.03622,0.01181,0,0,90.0*
1,1,0.00118,0.00532,0.01811*
1,1,0.00118,0.00532,-0.01811*
1,1,0.00118,-0.00532,-0.01811*
1,1,0.00118,-0.00532,0.01811*
%
%ADD20ROUNDEDRECTD20*%
G04:AMPARAMS|DCode=21|XSize=23.62mil|YSize=19.69mil|CornerRadius=0.98mil|HoleSize=0mil|Usage=FLASHONLY|Rotation=0.000|XOffset=0mil|YOffset=0mil|HoleType=Round|Shape=RoundedRectangle|*
%AMROUNDEDRECTD21*
21,1,0.02362,0.01772,0,0,0.0*
21,1,0.02165,0.01969,0,0,0.0*
1,1,0.00197,0.01083,-0.00886*
1,1,0.00197,-0.01083,-0.00886*
1,1,0.00197,-0.01083,0.00886*
1,1,0.00197,0.01083,0.00886*
%
%ADD21ROUNDEDRECTD21*%
G04:AMPARAMS|DCode=22|XSize=19.66mil|YSize=13.78mil|CornerRadius=0.69mil|HoleSize=0mil|Usage=FLASHONLY|Rotation=180.000|XOffset=0mil|YOffset=0mil|HoleType=Round|Shape=RoundedRectangle|*
%AMROUNDEDRECTD22*
21,1,0.01966,0.01240,0,0,180.0*
21,1,0.01828,0.01378,0,0,180.0*
1,1,0.00138,-0.00914,0.00620*
1,1,0.00138,0.00914,0.00620*
1,1,0.00138,0.00914,-0.00620*
1,1,0.00138,-0.00914,-0.00620*
%
%ADD22ROUNDEDRECTD22*%
%ADD23C,0.01000*%
%ADD25R,0.05906X0.05906*%
%ADD26C,0.05906*%
D10*
X84098Y50286D02*
D03*
X88035D02*
D03*
X84098Y46786D02*
D03*
X88035D02*
D03*
X96031Y43000D02*
D03*
X99968D02*
D03*
X90118Y60500D02*
D03*
X86181D02*
D03*
X90118Y64000D02*
D03*
X86181D02*
D03*
X96469Y71500D02*
D03*
X92532D02*
D03*
X100031D02*
D03*
X103969D02*
D03*
X99535Y151786D02*
D03*
X95598D02*
D03*
X84969Y134000D02*
D03*
X81032D02*
D03*
X84969Y130500D02*
D03*
X81032D02*
D03*
X82531Y139000D02*
D03*
X86468D02*
D03*
X83531Y119500D02*
D03*
X87468D02*
D03*
X103098Y118286D02*
D03*
X107035D02*
D03*
X103098Y114786D02*
D03*
X107035D02*
D03*
X118968Y140500D02*
D03*
X115032D02*
D03*
X115298Y132486D02*
D03*
X119235D02*
D03*
X115498Y136486D02*
D03*
X119435D02*
D03*
X115032Y128500D02*
D03*
X118968D02*
D03*
X115098Y124786D02*
D03*
X119035D02*
D03*
X108535Y107286D02*
D03*
X104598D02*
D03*
D11*
X83500Y55500D02*
D03*
X89799D02*
D03*
D12*
X86650Y57075D02*
D03*
Y53925D02*
D03*
D13*
X95579Y35417D02*
D03*
X100500D02*
D03*
X105421D02*
D03*
X104921Y162083D02*
D03*
X100000D02*
D03*
X95079D02*
D03*
D14*
X86500Y26000D02*
D03*
X114500D02*
D03*
X114000Y171500D02*
D03*
X86000D02*
D03*
D15*
X95063Y65545D02*
D03*
X97031D02*
D03*
X99000D02*
D03*
X100969D02*
D03*
Y48455D02*
D03*
X99000D02*
D03*
X97031D02*
D03*
X95063D02*
D03*
D16*
X88955Y76063D02*
D03*
Y78031D02*
D03*
Y80000D02*
D03*
Y81968D02*
D03*
X106045D02*
D03*
Y80000D02*
D03*
Y78031D02*
D03*
Y76063D02*
D03*
D17*
X84567Y74254D02*
D03*
Y70317D02*
D03*
Y77817D02*
D03*
Y81754D02*
D03*
X81067D02*
D03*
Y77817D02*
D03*
X110500Y73532D02*
D03*
Y77469D02*
D03*
Y82531D02*
D03*
Y86468D02*
D03*
X114000D02*
D03*
Y82531D02*
D03*
X117500D02*
D03*
Y86468D02*
D03*
X121000Y82531D02*
D03*
Y86468D02*
D03*
X106567Y155754D02*
D03*
Y151817D02*
D03*
X88567D02*
D03*
Y155754D02*
D03*
X92067D02*
D03*
Y151817D02*
D03*
X108500Y99532D02*
D03*
Y103469D02*
D03*
X105067Y99817D02*
D03*
Y103754D02*
D03*
X103067Y155754D02*
D03*
Y151817D02*
D03*
D18*
X101000Y136500D02*
D03*
D19*
X110370Y130595D02*
D03*
Y132563D02*
D03*
Y134531D02*
D03*
Y136500D02*
D03*
Y138469D02*
D03*
Y140437D02*
D03*
Y142405D02*
D03*
X91630Y130595D02*
D03*
Y132563D02*
D03*
Y134531D02*
D03*
Y136500D02*
D03*
Y138469D02*
D03*
Y140437D02*
D03*
Y142405D02*
D03*
D20*
X106905Y127130D02*
D03*
X104937D02*
D03*
X102969D02*
D03*
X101000D02*
D03*
X99032D02*
D03*
X97063D02*
D03*
X95095D02*
D03*
Y145870D02*
D03*
X97063D02*
D03*
X99032D02*
D03*
X101000D02*
D03*
X102969D02*
D03*
X104937D02*
D03*
X106905D02*
D03*
D21*
X83335Y126575D02*
D03*
X87665D02*
D03*
Y123425D02*
D03*
X83335D02*
D03*
D22*
X92465Y99661D02*
D03*
Y102220D02*
D03*
Y104780D02*
D03*
Y107339D02*
D03*
X100535D02*
D03*
Y104780D02*
D03*
Y102220D02*
D03*
Y99661D02*
D03*
D23*
X64567Y182214D02*
X135433D01*
Y17786D02*
Y182214D01*
X64567Y17786D02*
X135433D01*
X64567D02*
Y182214D01*
D25*
X129528Y30500D02*
D03*
X70472Y169500D02*
D03*
D26*
X129528Y40500D02*
D03*
Y50500D02*
D03*
Y60500D02*
D03*
Y70500D02*
D03*
Y80500D02*
D03*
Y90500D02*
D03*
Y100500D02*
D03*
Y110500D02*
D03*
Y120500D02*
D03*
Y130500D02*
D03*
Y140500D02*
D03*
Y150500D02*
D03*
Y160500D02*
D03*
Y170500D02*
D03*
X70472Y159500D02*
D03*
Y149500D02*
D03*
Y139500D02*
D03*
Y129500D02*
D03*
Y119500D02*
D03*
Y109500D02*
D03*
Y99500D02*
D03*
Y89500D02*
D03*
Y79500D02*
D03*
Y69500D02*
D03*
Y59500D02*
D03*
Y49500D02*
D03*
Y39500D02*
D03*
Y29500D02*
D03*
M02*
