G04*
G04 #@! TF.GenerationSoftware,Altium Limited,CircuitStudio,1.5.1 (13)*
G04*
G04 Layer_Color=128*
%FSLAX25Y25*%
%MOIN*%
G70*
G01*
G75*
%ADD23C,0.01000*%
%ADD35C,0.00500*%
D23*
X64567Y182214D02*
X135433D01*
Y17786D02*
Y182214D01*
X64567Y17786D02*
X135433D01*
X64567D02*
Y182214D01*
D35*
X127756Y30500D02*
X131299D01*
X129528Y28728D02*
Y32272D01*
X127756Y40500D02*
X131299D01*
X129528Y38728D02*
Y42272D01*
X127756Y50500D02*
X131299D01*
X129528Y48728D02*
Y52272D01*
X127756Y60500D02*
X131299D01*
X129528Y58728D02*
Y62272D01*
X127756Y70500D02*
X131299D01*
X129528Y68728D02*
Y72272D01*
X127756Y80500D02*
X131299D01*
X129528Y78728D02*
Y82272D01*
X127756Y90500D02*
X131299D01*
X129528Y88728D02*
Y92272D01*
X127756Y100500D02*
X131299D01*
X129528Y98728D02*
Y102272D01*
X127756Y110500D02*
X131299D01*
X129528Y108728D02*
Y112272D01*
X127756Y120500D02*
X131299D01*
X129528Y118728D02*
Y122272D01*
X127756Y130500D02*
X131299D01*
X129528Y128728D02*
Y132272D01*
X127756Y140500D02*
X131299D01*
X129528Y138728D02*
Y142272D01*
X127756Y150500D02*
X131299D01*
X129528Y148728D02*
Y152272D01*
X127756Y160500D02*
X131299D01*
X129528Y158728D02*
Y162272D01*
X127756Y170500D02*
X131299D01*
X129528Y168728D02*
Y172272D01*
X68701Y169500D02*
X72244D01*
X70472Y167728D02*
Y171272D01*
X68701Y159500D02*
X72244D01*
X70472Y157728D02*
Y161272D01*
X68701Y149500D02*
X72244D01*
X70472Y147728D02*
Y151272D01*
X68701Y139500D02*
X72244D01*
X70472Y137728D02*
Y141272D01*
X68701Y129500D02*
X72244D01*
X70472Y127728D02*
Y131272D01*
X68701Y119500D02*
X72244D01*
X70472Y117728D02*
Y121272D01*
X68701Y109500D02*
X72244D01*
X70472Y107728D02*
Y111272D01*
X68701Y99500D02*
X72244D01*
X70472Y97728D02*
Y101272D01*
X68701Y89500D02*
X72244D01*
X70472Y87728D02*
Y91272D01*
X68701Y79500D02*
X72244D01*
X70472Y77728D02*
Y81272D01*
X68701Y69500D02*
X72244D01*
X70472Y67728D02*
Y71272D01*
X68701Y59500D02*
X72244D01*
X70472Y57728D02*
Y61272D01*
X68701Y49500D02*
X72244D01*
X70472Y47728D02*
Y51272D01*
X68701Y39500D02*
X72244D01*
X70472Y37728D02*
Y41272D01*
X68701Y29500D02*
X72244D01*
X70472Y27728D02*
Y31272D01*
X111617Y114286D02*
X112517D01*
X112067Y113836D02*
Y114736D01*
X83117Y116786D02*
X84017D01*
X83567Y116336D02*
Y117236D01*
X89117Y102286D02*
X90017D01*
X89567Y101836D02*
Y102736D01*
X80117Y46786D02*
X81017D01*
X80567Y46336D02*
Y47236D01*
X87617Y96786D02*
X88517D01*
X88067Y96336D02*
Y97236D01*
X92117Y68286D02*
X93017D01*
X92567Y67836D02*
Y68736D01*
X90117Y43286D02*
X91017D01*
X90567Y42836D02*
Y43736D01*
X95817Y121086D02*
X96717D01*
X96267Y120636D02*
Y121536D01*
X99517Y121986D02*
X100417D01*
X99967Y121536D02*
Y122436D01*
X91217Y124186D02*
X92117D01*
X91667Y123736D02*
Y124636D01*
X91717Y121186D02*
X92617D01*
X92167Y120736D02*
Y121636D01*
X116017Y103286D02*
X116917D01*
X116467Y102836D02*
Y103736D01*
X78317Y137086D02*
X79217D01*
X78767Y136636D02*
Y137536D01*
X81117Y74286D02*
X82017D01*
X81567Y73836D02*
Y74736D01*
X92817Y85986D02*
X93717D01*
X93267Y85536D02*
Y86436D01*
X113717Y75286D02*
X114617D01*
X114167Y74836D02*
Y75736D01*
X84117Y93701D02*
X85017D01*
X84567Y93251D02*
Y94151D01*
X105117Y122786D02*
X106017D01*
X105567Y122336D02*
Y123236D01*
X109117Y122786D02*
X110017D01*
X109567Y122336D02*
Y123236D01*
X117617Y75786D02*
X118517D01*
X118067Y75336D02*
Y76236D01*
X103617Y85786D02*
X104517D01*
X104067Y85336D02*
Y86236D01*
M02*
