M48
;Layer_Color=9474304
;FILE_FORMAT=2:5
INCH,LZ
;TYPE=PLATED
T1F00S00C0.00900
T2F00S00C0.03543
%
T01
X0080567Y0046786
X0090567Y0043286
X0092567Y0068286
X0081567Y0074286
X0084567Y0093701
X0088067Y0096786
X0089567Y0102286
X0093267Y0085986
X0104067Y0085786
X0114167Y0075286
X0118067Y0075786
X0116467Y0103286
X0112067Y0114286
X0109567Y0122786
X0105567
X0099967Y0121986
X0096267Y0121086
X0092167Y0121186
X0091667Y0124186
X0083567Y0116786
X0078767Y0137086
T02
X0070472Y00295
Y00395
Y00495
Y00595
Y00695
Y00795
Y00895
Y00995
Y01095
Y01195
Y01295
Y01395
Y01495
X0129528Y01505
Y01405
Y01305
Y01205
Y01105
Y01005
Y00905
Y00805
Y00705
Y00605
Y00505
Y00405
Y00305
Y01605
Y01705
X0070472Y01695
Y01595
M30
